# Blender v2.83.1 OBJ File: 'tile_black_white.blend'
# www.blender.org
mtllib tile_black_white.mtl
o Plane
v -0.500000 0.000000 0.500000
v 0.500000 0.000000 0.500000
v -0.500000 0.000000 -0.500000
v 0.500000 0.000000 -0.500000
v -0.500000 0.000000 0.000000
v 0.500000 0.000000 0.000000
v 0.000000 0.000000 0.500000
v 0.000000 0.000000 -0.500000
v 0.000000 0.000000 0.000000
vt 0.500000 0.500000
vt 0.500000 0.000000
vt 1.000000 0.000000
vt 1.000000 0.500000
vt 0.000000 1.000000
vt 0.000000 0.500000
vt 0.500000 1.000000
vt 0.000000 0.000000
vt 1.000000 1.000000
vn 0.0000 1.0000 0.0000
usemtl black_tile
s off
f 9/1/1 6/2/1 4/3/1 8/4/1
f 1/5/1 7/6/1 9/1/1 5/7/1
usemtl while_tile
f 7/6/1 2/8/1 6/2/1 9/1/1
f 5/7/1 9/1/1 8/4/1 3/9/1
